<?xml version="1.0" encoding="UTF-8" standalone="no"?>
<!DOCTYPE svg PUBLIC "-//W3C//DTD SVG 1.1//EN"
 "http://www.w3.org/Graphics/SVG/1.1/DTD/svg11.dtd">
<!-- Generated by graphviz version 2.36.0 (20140111.2315)
 -->
<!-- Title: controllers_diagram Pages: 1 -->
<svg width="731pt" height="595pt"
 viewBox="0.00 0.00 731.38 595.48" xmlns="http://www.w3.org/2000/svg" xmlns:xlink="http://www.w3.org/1999/xlink">
<g id="graph0" class="graph" transform="scale(1 1) rotate(0) translate(4 591.477)">
<title>controllers_diagram</title>
<polygon fill="white" stroke="none" points="-4,4 -4,-591.477 727.375,-591.477 727.375,4 -4,4"/>
<!-- _diagram_info -->
<g id="node1" class="node"><title>_diagram_info</title>
<text text-anchor="start" x="524" y="-101.6" font-family="Times,serif" font-size="13.00">Controllers diagram</text>
<text text-anchor="start" x="524" y="-88.6" font-family="Times,serif" font-size="13.00">Date: Sep 09 2014 &#45; 14:27</text>
<text text-anchor="start" x="524" y="-75.6" font-family="Times,serif" font-size="13.00">Migration version: 20140909163228</text>
<text text-anchor="start" x="524" y="-62.6" font-family="Times,serif" font-size="13.00">Generated by RailRoady 1.1.2</text>
<text text-anchor="start" x="524" y="-49.6" font-family="Times,serif" font-size="13.00">http://railroady.prestonlee.com</text>
</g>
<!-- AnswersController -->
<g id="node2" class="node"><title>AnswersController</title>
<path fill="none" stroke="black" d="M12,-216.437C12,-216.437 129.146,-216.437 129.146,-216.437 135.146,-216.437 141.146,-222.437 141.146,-228.437 141.146,-228.437 141.146,-350.437 141.146,-350.437 141.146,-356.437 135.146,-362.437 129.146,-362.437 129.146,-362.437 12,-362.437 12,-362.437 6,-362.437 0,-356.437 0,-350.437 0,-350.437 0,-228.437 0,-228.437 0,-222.437 6,-216.437 12,-216.437"/>
<text text-anchor="middle" x="70.5728" y="-347.237" font-family="Times,serif" font-size="14.00">AnswersController</text>
<polyline fill="none" stroke="black" points="0,-340.437 141.146,-340.437 "/>
<text text-anchor="start" x="8" y="-325.237" font-family="Times,serif" font-size="14.00">create_answer_review</text>
<text text-anchor="start" x="8" y="-311.237" font-family="Times,serif" font-size="14.00">index</text>
<text text-anchor="start" x="8" y="-297.237" font-family="Times,serif" font-size="14.00">new_answer_review</text>
<text text-anchor="start" x="8" y="-283.237" font-family="Times,serif" font-size="14.00">show</text>
<polyline fill="none" stroke="black" points="0,-276.437 141.146,-276.437 "/>
<polyline fill="none" stroke="black" points="0,-252.437 141.146,-252.437 "/>
<text text-anchor="start" x="8" y="-237.237" font-family="Times,serif" font-size="14.00">_layout</text>
<text text-anchor="start" x="8" y="-223.237" font-family="Times,serif" font-size="14.00">answer_params</text>
</g>
<!-- ApplicationController -->
<g id="node3" class="node"><title>ApplicationController</title>
<path fill="none" stroke="black" d="M180.869,-251.275C180.869,-251.275 301.166,-251.275 301.166,-251.275 307.166,-251.275 313.166,-257.275 313.166,-263.275 313.166,-263.275 313.166,-329.275 313.166,-329.275 313.166,-335.275 307.166,-341.275 301.166,-341.275 301.166,-341.275 180.869,-341.275 180.869,-341.275 174.869,-341.275 168.869,-335.275 168.869,-329.275 168.869,-329.275 168.869,-263.275 168.869,-263.275 168.869,-257.275 174.869,-251.275 180.869,-251.275"/>
<text text-anchor="middle" x="241.018" y="-326.075" font-family="Times,serif" font-size="14.00">ApplicationController</text>
<polyline fill="none" stroke="black" points="168.869,-319.275 313.166,-319.275 "/>
<text text-anchor="start" x="176.869" y="-304.075" font-family="Times,serif" font-size="14.00">after_sign_in_path_for</text>
<polyline fill="none" stroke="black" points="168.869,-297.275 313.166,-297.275 "/>
<polyline fill="none" stroke="black" points="168.869,-273.275 313.166,-273.275 "/>
<text text-anchor="start" x="176.869" y="-258.075" font-family="Times,serif" font-size="14.00">_layout</text>
</g>
<!-- ApplicationController&#45;&gt;AnswersController -->
<g id="edge1" class="edge"><title>ApplicationController&#45;&gt;AnswersController</title>
<path fill="none" stroke="black" d="M168.734,-293.375C159.661,-293.011 150.387,-292.639 141.338,-292.276"/>
</g>
<!-- QuestionsController -->
<g id="node4" class="node"><title>QuestionsController</title>
<path fill="none" stroke="black" d="M314.541,-40.5839C314.541,-40.5839 420.086,-40.5839 420.086,-40.5839 426.086,-40.5839 432.086,-46.5839 432.086,-52.5839 432.086,-52.5839 432.086,-160.584 432.086,-160.584 432.086,-166.584 426.086,-172.584 420.086,-172.584 420.086,-172.584 314.541,-172.584 314.541,-172.584 308.541,-172.584 302.541,-166.584 302.541,-160.584 302.541,-160.584 302.541,-52.5839 302.541,-52.5839 302.541,-46.5839 308.541,-40.5839 314.541,-40.5839"/>
<text text-anchor="middle" x="367.313" y="-157.384" font-family="Times,serif" font-size="14.00">QuestionsController</text>
<polyline fill="none" stroke="black" points="302.541,-150.584 432.086,-150.584 "/>
<text text-anchor="start" x="310.541" y="-135.384" font-family="Times,serif" font-size="14.00">edit</text>
<text text-anchor="start" x="310.541" y="-121.384" font-family="Times,serif" font-size="14.00">show</text>
<text text-anchor="start" x="310.541" y="-107.384" font-family="Times,serif" font-size="14.00">update</text>
<polyline fill="none" stroke="black" points="302.541,-100.584 432.086,-100.584 "/>
<polyline fill="none" stroke="black" points="302.541,-76.5839 432.086,-76.5839 "/>
<text text-anchor="start" x="310.541" y="-61.3839" font-family="Times,serif" font-size="14.00">_layout</text>
<text text-anchor="start" x="310.541" y="-47.3839" font-family="Times,serif" font-size="14.00">question_params</text>
</g>
<!-- ApplicationController&#45;&gt;QuestionsController -->
<g id="edge2" class="edge"><title>ApplicationController&#45;&gt;QuestionsController</title>
<path fill="none" stroke="black" d="M271.269,-250.839C286.812,-227.493 306.046,-198.605 323.208,-172.828"/>
</g>
<!-- ReviewsController -->
<g id="node5" class="node"><title>ReviewsController</title>
<path fill="none" stroke="black" d="M312.823,-397.097C312.823,-397.097 410.582,-397.097 410.582,-397.097 416.582,-397.097 422.582,-403.097 422.582,-409.097 422.582,-409.097 422.582,-573.097 422.582,-573.097 422.582,-579.097 416.582,-585.097 410.582,-585.097 410.582,-585.097 312.823,-585.097 312.823,-585.097 306.823,-585.097 300.823,-579.097 300.823,-573.097 300.823,-573.097 300.823,-409.097 300.823,-409.097 300.823,-403.097 306.823,-397.097 312.823,-397.097"/>
<text text-anchor="middle" x="361.702" y="-569.897" font-family="Times,serif" font-size="14.00">ReviewsController</text>
<polyline fill="none" stroke="black" points="300.823,-563.097 422.582,-563.097 "/>
<text text-anchor="start" x="308.823" y="-547.897" font-family="Times,serif" font-size="14.00">create</text>
<text text-anchor="start" x="308.823" y="-533.897" font-family="Times,serif" font-size="14.00">destroy</text>
<text text-anchor="start" x="308.823" y="-519.897" font-family="Times,serif" font-size="14.00">edit</text>
<text text-anchor="start" x="308.823" y="-505.897" font-family="Times,serif" font-size="14.00">index</text>
<text text-anchor="start" x="308.823" y="-491.897" font-family="Times,serif" font-size="14.00">new</text>
<text text-anchor="start" x="308.823" y="-477.897" font-family="Times,serif" font-size="14.00">show</text>
<text text-anchor="start" x="308.823" y="-463.897" font-family="Times,serif" font-size="14.00">update</text>
<polyline fill="none" stroke="black" points="300.823,-457.097 422.582,-457.097 "/>
<polyline fill="none" stroke="black" points="300.823,-433.097 422.582,-433.097 "/>
<text text-anchor="start" x="308.823" y="-417.897" font-family="Times,serif" font-size="14.00">_layout</text>
<text text-anchor="start" x="308.823" y="-403.897" font-family="Times,serif" font-size="14.00">review_params</text>
</g>
<!-- ApplicationController&#45;&gt;ReviewsController -->
<g id="edge3" class="edge"><title>ApplicationController&#45;&gt;ReviewsController</title>
<path fill="none" stroke="black" d="M269.009,-341.46C279.314,-358.097 291.407,-377.618 303.393,-396.967"/>
</g>
<!-- StaticPagesController -->
<g id="node6" class="node"><title>StaticPagesController</title>
<path fill="none" stroke="black" d="M354.337,-258.543C354.337,-258.543 468.427,-258.543 468.427,-258.543 474.427,-258.543 480.427,-264.543 480.427,-270.543 480.427,-270.543 480.427,-336.543 480.427,-336.543 480.427,-342.543 474.427,-348.543 468.427,-348.543 468.427,-348.543 354.337,-348.543 354.337,-348.543 348.337,-348.543 342.337,-342.543 342.337,-336.543 342.337,-336.543 342.337,-270.543 342.337,-270.543 342.337,-264.543 348.337,-258.543 354.337,-258.543"/>
<text text-anchor="middle" x="411.382" y="-333.343" font-family="Times,serif" font-size="14.00">StaticPagesController</text>
<polyline fill="none" stroke="black" points="342.337,-326.543 480.427,-326.543 "/>
<text text-anchor="start" x="350.337" y="-311.343" font-family="Times,serif" font-size="14.00">home</text>
<polyline fill="none" stroke="black" points="342.337,-304.543 480.427,-304.543 "/>
<polyline fill="none" stroke="black" points="342.337,-280.543 480.427,-280.543 "/>
<text text-anchor="start" x="350.337" y="-265.343" font-family="Times,serif" font-size="14.00">_layout</text>
</g>
<!-- ApplicationController&#45;&gt;StaticPagesController -->
<g id="edge4" class="edge"><title>ApplicationController&#45;&gt;StaticPagesController</title>
<path fill="none" stroke="black" d="M313.268,-299.357C322.881,-299.767 332.719,-300.187 342.276,-300.595"/>
</g>
<!-- TaxisController -->
<g id="node7" class="node"><title>TaxisController</title>
<path fill="none" stroke="black" d="M74.7322,-384.977C74.7322,-384.977 154.403,-384.977 154.403,-384.977 160.403,-384.977 166.403,-390.977 166.403,-396.977 166.403,-396.977 166.403,-574.977 166.403,-574.977 166.403,-580.977 160.403,-586.977 154.403,-586.977 154.403,-586.977 74.7322,-586.977 74.7322,-586.977 68.7322,-586.977 62.7322,-580.977 62.7322,-574.977 62.7322,-574.977 62.7322,-396.977 62.7322,-396.977 62.7322,-390.977 68.7322,-384.977 74.7322,-384.977"/>
<text text-anchor="middle" x="114.568" y="-571.777" font-family="Times,serif" font-size="14.00">TaxisController</text>
<polyline fill="none" stroke="black" points="62.7322,-564.977 166.403,-564.977 "/>
<text text-anchor="start" x="70.7322" y="-549.777" font-family="Times,serif" font-size="14.00">create</text>
<text text-anchor="start" x="70.7322" y="-535.777" font-family="Times,serif" font-size="14.00">destroy</text>
<text text-anchor="start" x="70.7322" y="-521.777" font-family="Times,serif" font-size="14.00">edit</text>
<text text-anchor="start" x="70.7322" y="-507.777" font-family="Times,serif" font-size="14.00">index</text>
<text text-anchor="start" x="70.7322" y="-493.777" font-family="Times,serif" font-size="14.00">new</text>
<text text-anchor="start" x="70.7322" y="-479.777" font-family="Times,serif" font-size="14.00">show</text>
<text text-anchor="start" x="70.7322" y="-465.777" font-family="Times,serif" font-size="14.00">update</text>
<polyline fill="none" stroke="black" points="62.7322,-458.977 166.403,-458.977 "/>
<polyline fill="none" stroke="black" points="62.7322,-434.977 166.403,-434.977 "/>
<text text-anchor="start" x="70.7322" y="-419.777" font-family="Times,serif" font-size="14.00">_layout</text>
<text text-anchor="start" x="70.7322" y="-405.777" font-family="Times,serif" font-size="14.00">set_user</text>
<text text-anchor="start" x="70.7322" y="-391.777" font-family="Times,serif" font-size="14.00">taxi_params</text>
</g>
<!-- ApplicationController&#45;&gt;TaxisController -->
<g id="edge5" class="edge"><title>ApplicationController&#45;&gt;TaxisController</title>
<path fill="none" stroke="black" d="M210.73,-341.713C197.505,-361.553 181.613,-385.395 166.592,-407.929"/>
</g>
<!-- UsersController -->
<g id="node8" class="node"><title>UsersController</title>
<path fill="none" stroke="black" d="M79.3394,-0.5C79.3394,-0.5 160.767,-0.5 160.767,-0.5 166.767,-0.5 172.767,-6.5 172.767,-12.5 172.767,-12.5 172.767,-190.5 172.767,-190.5 172.767,-196.5 166.767,-202.5 160.767,-202.5 160.767,-202.5 79.3394,-202.5 79.3394,-202.5 73.3394,-202.5 67.3394,-196.5 67.3394,-190.5 67.3394,-190.5 67.3394,-12.5 67.3394,-12.5 67.3394,-6.5 73.3394,-0.5 79.3394,-0.5"/>
<text text-anchor="middle" x="120.053" y="-187.3" font-family="Times,serif" font-size="14.00">UsersController</text>
<polyline fill="none" stroke="black" points="67.3394,-180.5 172.767,-180.5 "/>
<text text-anchor="start" x="75.3394" y="-165.3" font-family="Times,serif" font-size="14.00">create</text>
<text text-anchor="start" x="75.3394" y="-151.3" font-family="Times,serif" font-size="14.00">destroy</text>
<text text-anchor="start" x="75.3394" y="-137.3" font-family="Times,serif" font-size="14.00">edit</text>
<text text-anchor="start" x="75.3394" y="-123.3" font-family="Times,serif" font-size="14.00">index</text>
<text text-anchor="start" x="75.3394" y="-109.3" font-family="Times,serif" font-size="14.00">new</text>
<text text-anchor="start" x="75.3394" y="-95.3" font-family="Times,serif" font-size="14.00">show</text>
<text text-anchor="start" x="75.3394" y="-81.3" font-family="Times,serif" font-size="14.00">update</text>
<polyline fill="none" stroke="black" points="67.3394,-74.5 172.767,-74.5 "/>
<polyline fill="none" stroke="black" points="67.3394,-50.5 172.767,-50.5 "/>
<text text-anchor="start" x="75.3394" y="-35.3" font-family="Times,serif" font-size="14.00">_layout</text>
<text text-anchor="start" x="75.3394" y="-21.3" font-family="Times,serif" font-size="14.00">set_user</text>
<text text-anchor="start" x="75.3394" y="-7.3" font-family="Times,serif" font-size="14.00">user_params</text>
</g>
<!-- ApplicationController&#45;&gt;UsersController -->
<g id="edge6" class="edge"><title>ApplicationController&#45;&gt;UsersController</title>
<path fill="none" stroke="black" d="M212.962,-251.1C201.027,-231.883 186.701,-208.815 172.912,-186.612"/>
</g>
</g>
</svg>
