<?xml version="1.0" encoding="UTF-8" standalone="no"?>
<!DOCTYPE svg PUBLIC "-//W3C//DTD SVG 1.1//EN"
 "http://www.w3.org/Graphics/SVG/1.1/DTD/svg11.dtd">
<!-- Generated by graphviz version 2.36.0 (20140111.2315)
 -->
<!-- Title: controllers_diagram Pages: 1 -->
<svg width="521pt" height="504pt"
 viewBox="0.00 0.00 521.38 503.76" xmlns="http://www.w3.org/2000/svg" xmlns:xlink="http://www.w3.org/1999/xlink">
<g id="graph0" class="graph" transform="scale(1 1) rotate(0) translate(4 499.76)">
<title>controllers_diagram</title>
<polygon fill="white" stroke="none" points="-4,4 -4,-499.76 517.375,-499.76 517.375,4 -4,4"/>
<!-- _diagram_info -->
<g id="node1" class="node"><title>_diagram_info</title>
<text text-anchor="start" x="314" y="-194.6" font-family="Times,serif" font-size="13.00">Controllers diagram</text>
<text text-anchor="start" x="314" y="-181.6" font-family="Times,serif" font-size="13.00">Date: Sep 05 2014 &#45; 21:09</text>
<text text-anchor="start" x="314" y="-168.6" font-family="Times,serif" font-size="13.00">Migration version: 20140906015343</text>
<text text-anchor="start" x="314" y="-155.6" font-family="Times,serif" font-size="13.00">Generated by RailRoady 1.1.2</text>
<text text-anchor="start" x="314" y="-142.6" font-family="Times,serif" font-size="13.00">http://railroady.prestonlee.com</text>
</g>
<!-- ApplicationController -->
<g id="node2" class="node"><title>ApplicationController</title>
<path fill="none" stroke="black" d="M12,-150.143C12,-150.143 127.642,-150.143 127.642,-150.143 133.642,-150.143 139.642,-156.143 139.642,-162.143 139.642,-162.143 139.642,-230.143 139.642,-230.143 139.642,-236.143 133.642,-242.143 127.642,-242.143 127.642,-242.143 12,-242.143 12,-242.143 6,-242.143 1.42109e-14,-236.143 1.42109e-14,-230.143 1.42109e-14,-230.143 1.42109e-14,-162.143 1.42109e-14,-162.143 1.42109e-14,-156.143 6,-150.143 12,-150.143"/>
<text text-anchor="middle" x="69.8208" y="-226.943" font-family="Times,serif" font-size="14.00">ApplicationController</text>
<polyline fill="none" stroke="black" points="1.42109e-14,-220.143 139.642,-220.143 "/>
<polyline fill="none" stroke="black" points="1.42109e-14,-196.143 139.642,-196.143 "/>
<polyline fill="none" stroke="black" points="1.42109e-14,-172.143 139.642,-172.143 "/>
<text text-anchor="start" x="8" y="-156.943" font-family="Times,serif" font-size="14.00">_layout</text>
</g>
<!-- StaticPagesController -->
<g id="node3" class="node"><title>StaticPagesController</title>
<path fill="none" stroke="black" d="M204.265,-284.839C204.265,-284.839 318.355,-284.839 318.355,-284.839 324.355,-284.839 330.355,-290.839 330.355,-296.839 330.355,-296.839 330.355,-362.839 330.355,-362.839 330.355,-368.839 324.355,-374.839 318.355,-374.839 318.355,-374.839 204.265,-374.839 204.265,-374.839 198.265,-374.839 192.265,-368.839 192.265,-362.839 192.265,-362.839 192.265,-296.839 192.265,-296.839 192.265,-290.839 198.265,-284.839 204.265,-284.839"/>
<text text-anchor="middle" x="261.31" y="-359.639" font-family="Times,serif" font-size="14.00">StaticPagesController</text>
<polyline fill="none" stroke="black" points="192.265,-352.839 330.355,-352.839 "/>
<text text-anchor="start" x="200.265" y="-337.639" font-family="Times,serif" font-size="14.00">home</text>
<polyline fill="none" stroke="black" points="192.265,-330.839 330.355,-330.839 "/>
<polyline fill="none" stroke="black" points="192.265,-306.839 330.355,-306.839 "/>
<text text-anchor="start" x="200.265" y="-291.639" font-family="Times,serif" font-size="14.00">_layout</text>
</g>
<!-- ApplicationController&#45;&gt;StaticPagesController -->
<g id="edge1" class="edge"><title>ApplicationController&#45;&gt;StaticPagesController</title>
<path fill="none" stroke="black" d="M135.721,-242.153C155.41,-255.901 176.971,-270.954 196.585,-284.648"/>
</g>
<!-- TaxisController -->
<g id="node4" class="node"><title>TaxisController</title>
<path fill="none" stroke="black" d="M165.313,-0.5C165.313,-0.5 244.984,-0.5 244.984,-0.5 250.984,-0.5 256.984,-6.5 256.984,-12.5 256.984,-12.5 256.984,-190.5 256.984,-190.5 256.984,-196.5 250.984,-202.5 244.984,-202.5 244.984,-202.5 165.313,-202.5 165.313,-202.5 159.313,-202.5 153.313,-196.5 153.313,-190.5 153.313,-190.5 153.313,-12.5 153.313,-12.5 153.313,-6.5 159.313,-0.5 165.313,-0.5"/>
<text text-anchor="middle" x="205.149" y="-187.3" font-family="Times,serif" font-size="14.00">TaxisController</text>
<polyline fill="none" stroke="black" points="153.313,-180.5 256.984,-180.5 "/>
<text text-anchor="start" x="161.313" y="-165.3" font-family="Times,serif" font-size="14.00">create</text>
<text text-anchor="start" x="161.313" y="-151.3" font-family="Times,serif" font-size="14.00">destroy</text>
<text text-anchor="start" x="161.313" y="-137.3" font-family="Times,serif" font-size="14.00">edit</text>
<text text-anchor="start" x="161.313" y="-123.3" font-family="Times,serif" font-size="14.00">index</text>
<text text-anchor="start" x="161.313" y="-109.3" font-family="Times,serif" font-size="14.00">new</text>
<text text-anchor="start" x="161.313" y="-95.3" font-family="Times,serif" font-size="14.00">show</text>
<text text-anchor="start" x="161.313" y="-81.3" font-family="Times,serif" font-size="14.00">update</text>
<polyline fill="none" stroke="black" points="153.313,-74.5 256.984,-74.5 "/>
<polyline fill="none" stroke="black" points="153.313,-50.5 256.984,-50.5 "/>
<text text-anchor="start" x="161.313" y="-35.3" font-family="Times,serif" font-size="14.00">_layout</text>
<text text-anchor="start" x="161.313" y="-21.3" font-family="Times,serif" font-size="14.00">set_user</text>
<text text-anchor="start" x="161.313" y="-7.3" font-family="Times,serif" font-size="14.00">taxi_params</text>
</g>
<!-- ApplicationController&#45;&gt;TaxisController -->
<g id="edge2" class="edge"><title>ApplicationController&#45;&gt;TaxisController</title>
<path fill="none" stroke="black" d="M135.899,-149.93C141.669,-145.895 147.455,-141.849 153.087,-137.909"/>
</g>
<!-- UsersController -->
<g id="node5" class="node"><title>UsersController</title>
<path fill="none" stroke="black" d="M59.3386,-293.26C59.3386,-293.26 140.766,-293.26 140.766,-293.26 146.766,-293.26 152.766,-299.26 152.766,-305.26 152.766,-305.26 152.766,-483.26 152.766,-483.26 152.766,-489.26 146.766,-495.26 140.766,-495.26 140.766,-495.26 59.3386,-495.26 59.3386,-495.26 53.3386,-495.26 47.3386,-489.26 47.3386,-483.26 47.3386,-483.26 47.3386,-305.26 47.3386,-305.26 47.3386,-299.26 53.3386,-293.26 59.3386,-293.26"/>
<text text-anchor="middle" x="100.052" y="-480.06" font-family="Times,serif" font-size="14.00">UsersController</text>
<polyline fill="none" stroke="black" points="47.3386,-473.26 152.766,-473.26 "/>
<text text-anchor="start" x="55.3386" y="-458.06" font-family="Times,serif" font-size="14.00">create</text>
<text text-anchor="start" x="55.3386" y="-444.06" font-family="Times,serif" font-size="14.00">destroy</text>
<text text-anchor="start" x="55.3386" y="-430.06" font-family="Times,serif" font-size="14.00">edit</text>
<text text-anchor="start" x="55.3386" y="-416.06" font-family="Times,serif" font-size="14.00">index</text>
<text text-anchor="start" x="55.3386" y="-402.06" font-family="Times,serif" font-size="14.00">new</text>
<text text-anchor="start" x="55.3386" y="-388.06" font-family="Times,serif" font-size="14.00">show</text>
<text text-anchor="start" x="55.3386" y="-374.06" font-family="Times,serif" font-size="14.00">update</text>
<polyline fill="none" stroke="black" points="47.3386,-367.26 152.766,-367.26 "/>
<polyline fill="none" stroke="black" points="47.3386,-343.26 152.766,-343.26 "/>
<text text-anchor="start" x="55.3386" y="-328.06" font-family="Times,serif" font-size="14.00">_layout</text>
<text text-anchor="start" x="55.3386" y="-314.06" font-family="Times,serif" font-size="14.00">set_user</text>
<text text-anchor="start" x="55.3386" y="-300.06" font-family="Times,serif" font-size="14.00">user_params</text>
</g>
<!-- ApplicationController&#45;&gt;UsersController -->
<g id="edge3" class="edge"><title>ApplicationController&#45;&gt;UsersController</title>
<path fill="none" stroke="black" d="M76.8706,-242.342C79.2086,-257.664 81.9107,-275.371 84.6261,-293.166"/>
</g>
</g>
</svg>
