<?xml version="1.0" encoding="UTF-8" standalone="no"?>
<!DOCTYPE svg PUBLIC "-//W3C//DTD SVG 1.1//EN"
 "http://www.w3.org/Graphics/SVG/1.1/DTD/svg11.dtd">
<!-- Generated by graphviz version 2.36.0 (20140111.2315)
 -->
<!-- Title: models_diagram Pages: 1 -->
<svg width="610pt" height="830pt"
 viewBox="0.00 0.00 610.00 830.00" xmlns="http://www.w3.org/2000/svg" xmlns:xlink="http://www.w3.org/1999/xlink">
<g id="graph0" class="graph" transform="scale(1 1) rotate(0) translate(4 826)">
<title>models_diagram</title>
<polygon fill="white" stroke="none" points="-4,4 -4,-826 606,-826 606,4 -4,4"/>
<!-- _diagram_info -->
<g id="node1" class="node"><title>_diagram_info</title>
<text text-anchor="start" x="7.31226" y="-807.1" font-family="Times,serif" font-size="13.00">Models diagram</text>
<text text-anchor="start" x="7.31226" y="-794.1" font-family="Times,serif" font-size="13.00">Date: Sep 09 2014 &#45; 14:27</text>
<text text-anchor="start" x="7.31226" y="-781.1" font-family="Times,serif" font-size="13.00">Migration version: 20140909163228</text>
<text text-anchor="start" x="7.31226" y="-768.1" font-family="Times,serif" font-size="13.00">Generated by RailRoady 1.1.2</text>
<text text-anchor="start" x="7.31226" y="-755.1" font-family="Times,serif" font-size="13.00">http://railroady.prestonlee.com</text>
</g>
<!-- Answer -->
<g id="node2" class="node"><title>Answer</title>
<path fill="none" stroke="black" d="M289.495,-1C289.495,-1 398.505,-1 398.505,-1 404.505,-1 410.505,-7 410.505,-13 410.505,-13 410.505,-103 410.505,-103 410.505,-109 404.505,-115 398.505,-115 398.505,-115 289.495,-115 289.495,-115 283.495,-115 277.495,-109 277.495,-103 277.495,-103 277.495,-13 277.495,-13 277.495,-7 283.495,-1 289.495,-1"/>
<text text-anchor="middle" x="344" y="-99.8" font-family="Times,serif" font-size="14.00">Answer</text>
<polyline fill="none" stroke="black" points="277.495,-93 410.505,-93 "/>
<text text-anchor="start" x="285.495" y="-77.8" font-family="Times,serif" font-size="14.00">id :integer</text>
<text text-anchor="start" x="285.495" y="-63.8" font-family="Times,serif" font-size="14.00">question_id :integer</text>
<text text-anchor="start" x="285.495" y="-49.8" font-family="Times,serif" font-size="14.00">content :string</text>
<text text-anchor="start" x="285.495" y="-35.8" font-family="Times,serif" font-size="14.00">created_at :datetime</text>
<text text-anchor="start" x="285.495" y="-21.8" font-family="Times,serif" font-size="14.00">updated_at :datetime</text>
<text text-anchor="start" x="285.495" y="-7.8" font-family="Times,serif" font-size="14.00">taxi_id :integer</text>
</g>
<!-- Question -->
<g id="node3" class="node"><title>Question</title>
<path fill="none" stroke="black" d="M289.495,-153C289.495,-153 398.505,-153 398.505,-153 404.505,-153 410.505,-159 410.505,-165 410.505,-165 410.505,-255 410.505,-255 410.505,-261 404.505,-267 398.505,-267 398.505,-267 289.495,-267 289.495,-267 283.495,-267 277.495,-261 277.495,-255 277.495,-255 277.495,-165 277.495,-165 277.495,-159 283.495,-153 289.495,-153"/>
<text text-anchor="middle" x="344" y="-251.8" font-family="Times,serif" font-size="14.00">Question</text>
<polyline fill="none" stroke="black" points="277.495,-245 410.505,-245 "/>
<text text-anchor="start" x="285.495" y="-229.8" font-family="Times,serif" font-size="14.00">id :integer</text>
<text text-anchor="start" x="285.495" y="-215.8" font-family="Times,serif" font-size="14.00">content :string</text>
<text text-anchor="start" x="285.495" y="-201.8" font-family="Times,serif" font-size="14.00">answer_type :string</text>
<text text-anchor="start" x="285.495" y="-187.8" font-family="Times,serif" font-size="14.00">review_id :integer</text>
<text text-anchor="start" x="285.495" y="-173.8" font-family="Times,serif" font-size="14.00">created_at :datetime</text>
<text text-anchor="start" x="285.495" y="-159.8" font-family="Times,serif" font-size="14.00">updated_at :datetime</text>
</g>
<!-- Question&#45;&gt;Answer -->
<g id="edge2" class="edge"><title>Question&#45;&gt;Answer</title>
<path fill="none" stroke="#59014e" d="M344,-144.557C344,-138.123 344,-131.584 344,-125.133"/>
<ellipse fill="none" stroke="#59014e" cx="344" cy="-148.719" rx="4" ry="4"/>
<polygon fill="#59014e" stroke="#59014e" points="344,-125.098 348.5,-115.098 344,-120.098 344,-115.098 344,-115.098 344,-115.098 344,-120.098 339.5,-115.098 344,-125.098 344,-125.098"/>
</g>
<!-- Review -->
<g id="node4" class="node"><title>Review</title>
<path fill="none" stroke="black" d="M308.495,-312C308.495,-312 417.505,-312 417.505,-312 423.505,-312 429.505,-318 429.505,-324 429.505,-324 429.505,-414 429.505,-414 429.505,-420 423.505,-426 417.505,-426 417.505,-426 308.495,-426 308.495,-426 302.495,-426 296.495,-420 296.495,-414 296.495,-414 296.495,-324 296.495,-324 296.495,-318 302.495,-312 308.495,-312"/>
<text text-anchor="middle" x="363" y="-410.8" font-family="Times,serif" font-size="14.00">Review</text>
<polyline fill="none" stroke="black" points="296.495,-404 429.505,-404 "/>
<text text-anchor="start" x="304.495" y="-388.8" font-family="Times,serif" font-size="14.00">id :integer</text>
<text text-anchor="start" x="304.495" y="-374.8" font-family="Times,serif" font-size="14.00">name :string</text>
<text text-anchor="start" x="304.495" y="-360.8" font-family="Times,serif" font-size="14.00">created_at :datetime</text>
<text text-anchor="start" x="304.495" y="-346.8" font-family="Times,serif" font-size="14.00">updated_at :datetime</text>
<text text-anchor="start" x="304.495" y="-332.8" font-family="Times,serif" font-size="14.00">taxi_id :integer</text>
<text text-anchor="start" x="304.495" y="-318.8" font-family="Times,serif" font-size="14.00">user_id :integer</text>
</g>
<!-- Review&#45;&gt;Question -->
<g id="edge4" class="edge"><title>Review&#45;&gt;Question</title>
<path fill="none" stroke="#6dc49e" d="M355.194,-303.494C354.144,-294.819 353.065,-285.908 352.012,-277.204"/>
<ellipse fill="none" stroke="#6dc49e" cx="355.714" cy="-307.792" rx="4.00001" ry="4.00001"/>
<polygon fill="#6dc49e" stroke="#6dc49e" points="351.992,-277.036 355.258,-266.568 351.391,-272.072 350.79,-267.108 350.79,-267.108 350.79,-267.108 351.391,-272.072 346.323,-267.649 351.992,-277.036 351.992,-277.036"/>
</g>
<!-- Taxi -->
<g id="node5" class="node"><title>Taxi</title>
<path fill="none" stroke="black" d="M459.595,-305C459.595,-305 590.405,-305 590.405,-305 596.405,-305 602.405,-311 602.405,-317 602.405,-317 602.405,-421 602.405,-421 602.405,-427 596.405,-433 590.405,-433 590.405,-433 459.595,-433 459.595,-433 453.595,-433 447.595,-427 447.595,-421 447.595,-421 447.595,-317 447.595,-317 447.595,-311 453.595,-305 459.595,-305"/>
<text text-anchor="middle" x="525" y="-417.8" font-family="Times,serif" font-size="14.00">Taxi</text>
<polyline fill="none" stroke="black" points="447.595,-411 602.405,-411 "/>
<text text-anchor="start" x="455.595" y="-395.8" font-family="Times,serif" font-size="14.00">id :integer</text>
<text text-anchor="start" x="455.595" y="-381.8" font-family="Times,serif" font-size="14.00">user_id :integer</text>
<text text-anchor="start" x="455.595" y="-367.8" font-family="Times,serif" font-size="14.00">driver_first_name :string</text>
<text text-anchor="start" x="455.595" y="-353.8" font-family="Times,serif" font-size="14.00">driver_last_name :string</text>
<text text-anchor="start" x="455.595" y="-339.8" font-family="Times,serif" font-size="14.00">driver_id :string</text>
<text text-anchor="start" x="455.595" y="-325.8" font-family="Times,serif" font-size="14.00">created_at :datetime</text>
<text text-anchor="start" x="455.595" y="-311.8" font-family="Times,serif" font-size="14.00">updated_at :datetime</text>
</g>
<!-- Taxi&#45;&gt;Answer -->
<g id="edge6" class="edge"><title>Taxi&#45;&gt;Answer</title>
<path fill="none" stroke="#5c1f0f" d="M495.077,-297.196C475.643,-253.963 448.501,-198.286 419,-152 412.878,-142.395 405.931,-132.631 398.796,-123.219"/>
<ellipse fill="none" stroke="#5c1f0f" cx="496.739" cy="-300.918" rx="4.00002" ry="4.00002"/>
<polygon fill="#5c1f0f" stroke="#5c1f0f" points="398.602,-122.968 396.055,-112.302 395.547,-119.009 392.492,-115.051 392.492,-115.051 392.492,-115.051 395.547,-119.009 388.93,-117.8 398.602,-122.968 398.602,-122.968"/>
</g>
<!-- User -->
<g id="node6" class="node"><title>User</title>
<path fill="none" stroke="black" d="M345.722,-471C345.722,-471 526.278,-471 526.278,-471 532.278,-471 538.278,-477 538.278,-483 538.278,-483 538.278,-699 538.278,-699 538.278,-705 532.278,-711 526.278,-711 526.278,-711 345.722,-711 345.722,-711 339.722,-711 333.722,-705 333.722,-699 333.722,-699 333.722,-483 333.722,-483 333.722,-477 339.722,-471 345.722,-471"/>
<text text-anchor="middle" x="436" y="-695.8" font-family="Times,serif" font-size="14.00">User</text>
<polyline fill="none" stroke="black" points="333.722,-689 538.278,-689 "/>
<text text-anchor="start" x="341.722" y="-673.8" font-family="Times,serif" font-size="14.00">id :integer</text>
<text text-anchor="start" x="341.722" y="-659.8" font-family="Times,serif" font-size="14.00">company_name :string</text>
<text text-anchor="start" x="341.722" y="-645.8" font-family="Times,serif" font-size="14.00">taxi_count :integer</text>
<text text-anchor="start" x="341.722" y="-631.8" font-family="Times,serif" font-size="14.00">created_at :datetime</text>
<text text-anchor="start" x="341.722" y="-617.8" font-family="Times,serif" font-size="14.00">updated_at :datetime</text>
<text text-anchor="start" x="341.722" y="-603.8" font-family="Times,serif" font-size="14.00">email :string</text>
<text text-anchor="start" x="341.722" y="-589.8" font-family="Times,serif" font-size="14.00">encrypted_password :string</text>
<text text-anchor="start" x="341.722" y="-575.8" font-family="Times,serif" font-size="14.00">reset_password_token :string</text>
<text text-anchor="start" x="341.722" y="-561.8" font-family="Times,serif" font-size="14.00">reset_password_sent_at :datetime</text>
<text text-anchor="start" x="341.722" y="-547.8" font-family="Times,serif" font-size="14.00">remember_created_at :datetime</text>
<text text-anchor="start" x="341.722" y="-533.8" font-family="Times,serif" font-size="14.00">sign_in_count :integer</text>
<text text-anchor="start" x="341.722" y="-519.8" font-family="Times,serif" font-size="14.00">current_sign_in_at :datetime</text>
<text text-anchor="start" x="341.722" y="-505.8" font-family="Times,serif" font-size="14.00">last_sign_in_at :datetime</text>
<text text-anchor="start" x="341.722" y="-491.8" font-family="Times,serif" font-size="14.00">current_sign_in_ip :inet</text>
<text text-anchor="start" x="341.722" y="-477.8" font-family="Times,serif" font-size="14.00">last_sign_in_ip :inet</text>
</g>
<!-- User&#45;&gt;Review -->
<g id="edge8" class="edge"><title>User&#45;&gt;Review</title>
<path fill="none" stroke="#a66958" d="M393.971,-463.337C390.852,-453.936 387.787,-444.702 384.872,-435.917"/>
<ellipse fill="none" stroke="#a66958" cx="395.249" cy="-467.189" rx="4.00001" ry="4.00001"/>
<polygon fill="#a66958" stroke="#a66958" points="384.799,-435.696 385.921,-424.788 383.224,-430.95 381.65,-426.205 381.65,-426.205 381.65,-426.205 383.224,-430.95 377.379,-427.622 384.799,-435.696 384.799,-435.696"/>
</g>
<!-- User&#45;&gt;Taxi -->
<g id="edge9" class="edge"><title>User&#45;&gt;Taxi</title>
<path fill="none" stroke="#99a9f7" d="M480.552,-463.358C483.513,-456.185 486.475,-449.109 489.386,-442.255"/>
<ellipse fill="none" stroke="#99a9f7" cx="478.937" cy="-467.286" rx="4.00001" ry="4.00001"/>
<polygon fill="#99a9f7" stroke="#99a9f7" points="489.386,-442.254 497.456,-434.829 491.352,-437.657 493.319,-433.059 493.319,-433.059 493.319,-433.059 491.352,-437.657 489.181,-431.29 489.386,-442.254 489.386,-442.254"/>
</g>
<!-- User&#45;&gt;Taxi -->
<g id="edge10" class="edge"><title>User&#45;&gt;Taxi</title>
<path fill="none" stroke="#ad8cfb" d="M493.913,-463.358C496.69,-456.348 499.393,-449.431 501.973,-442.723"/>
<ellipse fill="none" stroke="#ad8cfb" cx="492.356" cy="-467.269" rx="4.00001" ry="4.00001"/>
<polygon fill="#ad8cfb" stroke="#ad8cfb" points="502.096,-442.402 509.865,-434.664 503.878,-437.731 505.661,-433.059 505.661,-433.059 505.661,-433.059 503.878,-437.731 501.456,-431.455 502.096,-442.402 502.096,-442.402"/>
</g>
<!-- ActiveRecord::Base -->
<g id="node7" class="node"><title>ActiveRecord::Base</title>
<ellipse fill="none" stroke="black" cx="306" cy="-785" rx="80.9821" ry="18"/>
<text text-anchor="middle" x="306" y="-780.8" font-family="Times,serif" font-size="14.00">ActiveRecord::Base</text>
</g>
<!-- ActiveRecord::Base&#45;&gt;Answer -->
<g id="edge1" class="edge"><title>ActiveRecord::Base&#45;&gt;Answer</title>
<path fill="none" stroke="black" d="M292.035,-767.231C281.475,-753.393 267.833,-732.73 262,-712 194.585,-472.4 180.548,-385.034 268,-152 272.872,-139.018 280.341,-126.505 288.729,-115.093"/>
</g>
<!-- ActiveRecord::Base&#45;&gt;Question -->
<g id="edge3" class="edge"><title>ActiveRecord::Base&#45;&gt;Question</title>
<path fill="none" stroke="black" d="M301.606,-766.978C286.125,-704.024 237.643,-478.981 287,-304 290.547,-291.424 296.323,-278.871 302.869,-267.243"/>
</g>
<!-- ActiveRecord::Base&#45;&gt;Review -->
<g id="edge5" class="edge"><title>ActiveRecord::Base&#45;&gt;Review</title>
<path fill="none" stroke="black" d="M305.235,-766.736C303.502,-718.936 301.121,-581.058 325,-470 328.123,-455.474 333.005,-440.261 338.242,-426.209"/>
</g>
<!-- ActiveRecord::Base&#45;&gt;Taxi -->
<g id="edge7" class="edge"><title>ActiveRecord::Base&#45;&gt;Taxi</title>
<path fill="none" stroke="black" d="M369.596,-773.752C433.567,-761.992 525.707,-740.585 547,-712 607.246,-631.124 578.068,-507.417 551.473,-433.051"/>
</g>
<!-- ActiveRecord::Base&#45;&gt;User -->
<g id="edge11" class="edge"><title>ActiveRecord::Base&#45;&gt;User</title>
<path fill="none" stroke="black" d="M317.537,-766.961C326.671,-753.47 340.326,-733.303 355.152,-711.407"/>
</g>
</g>
</svg>
