<?xml version="1.0" encoding="UTF-8" standalone="no"?>
<!DOCTYPE svg PUBLIC "-//W3C//DTD SVG 1.1//EN"
 "http://www.w3.org/Graphics/SVG/1.1/DTD/svg11.dtd">
<!-- Generated by graphviz version 2.36.0 (20140111.2315)
 -->
<!-- Title: models_diagram Pages: 1 -->
<svg width="586pt" height="524pt"
 viewBox="0.00 0.00 586.00 524.00" xmlns="http://www.w3.org/2000/svg" xmlns:xlink="http://www.w3.org/1999/xlink">
<g id="graph0" class="graph" transform="scale(1 1) rotate(0) translate(4 520)">
<title>models_diagram</title>
<polygon fill="white" stroke="none" points="-4,4 -4,-520 582,-520 582,4 -4,4"/>
<!-- _diagram_info -->
<g id="node1" class="node"><title>_diagram_info</title>
<text text-anchor="start" x="7.31226" y="-501.1" font-family="Times,serif" font-size="13.00">Models diagram</text>
<text text-anchor="start" x="7.31226" y="-488.1" font-family="Times,serif" font-size="13.00">Date: Sep 05 2014 &#45; 21:09</text>
<text text-anchor="start" x="7.31226" y="-475.1" font-family="Times,serif" font-size="13.00">Migration version: 20140906015343</text>
<text text-anchor="start" x="7.31226" y="-462.1" font-family="Times,serif" font-size="13.00">Generated by RailRoady 1.1.2</text>
<text text-anchor="start" x="7.31226" y="-449.1" font-family="Times,serif" font-size="13.00">http://railroady.prestonlee.com</text>
</g>
<!-- Answer -->
<g id="node2" class="node"><title>Answer</title>
<path fill="none" stroke="black" d="M165.495,-1C165.495,-1 274.505,-1 274.505,-1 280.505,-1 286.505,-7 286.505,-13 286.505,-13 286.505,-89 286.505,-89 286.505,-95 280.505,-101 274.505,-101 274.505,-101 165.495,-101 165.495,-101 159.495,-101 153.495,-95 153.495,-89 153.495,-89 153.495,-13 153.495,-13 153.495,-7 159.495,-1 165.495,-1"/>
<text text-anchor="middle" x="220" y="-85.8" font-family="Times,serif" font-size="14.00">Answer</text>
<polyline fill="none" stroke="black" points="153.495,-79 286.505,-79 "/>
<text text-anchor="start" x="161.495" y="-63.8" font-family="Times,serif" font-size="14.00">id :integer</text>
<text text-anchor="start" x="161.495" y="-49.8" font-family="Times,serif" font-size="14.00">question_id :integer</text>
<text text-anchor="start" x="161.495" y="-35.8" font-family="Times,serif" font-size="14.00">content :string</text>
<text text-anchor="start" x="161.495" y="-21.8" font-family="Times,serif" font-size="14.00">created_at :datetime</text>
<text text-anchor="start" x="161.495" y="-7.8" font-family="Times,serif" font-size="14.00">updated_at :datetime</text>
</g>
<!-- Question -->
<g id="node3" class="node"><title>Question</title>
<path fill="none" stroke="black" d="M213.495,-146C213.495,-146 322.505,-146 322.505,-146 328.505,-146 334.505,-152 334.505,-158 334.505,-158 334.505,-248 334.505,-248 334.505,-254 328.505,-260 322.505,-260 322.505,-260 213.495,-260 213.495,-260 207.495,-260 201.495,-254 201.495,-248 201.495,-248 201.495,-158 201.495,-158 201.495,-152 207.495,-146 213.495,-146"/>
<text text-anchor="middle" x="268" y="-244.8" font-family="Times,serif" font-size="14.00">Question</text>
<polyline fill="none" stroke="black" points="201.495,-238 334.505,-238 "/>
<text text-anchor="start" x="209.495" y="-222.8" font-family="Times,serif" font-size="14.00">id :integer</text>
<text text-anchor="start" x="209.495" y="-208.8" font-family="Times,serif" font-size="14.00">content :string</text>
<text text-anchor="start" x="209.495" y="-194.8" font-family="Times,serif" font-size="14.00">answer_type :string</text>
<text text-anchor="start" x="209.495" y="-180.8" font-family="Times,serif" font-size="14.00">review_id :integer</text>
<text text-anchor="start" x="209.495" y="-166.8" font-family="Times,serif" font-size="14.00">created_at :datetime</text>
<text text-anchor="start" x="209.495" y="-152.8" font-family="Times,serif" font-size="14.00">updated_at :datetime</text>
</g>
<!-- Question&#45;&gt;Answer -->
<g id="edge2" class="edge"><title>Question&#45;&gt;Answer</title>
<path fill="none" stroke="#8a7834" d="M247.551,-138.097C244.65,-129.03 241.678,-119.743 238.809,-110.779"/>
<ellipse fill="none" stroke="#8a7834" cx="248.771" cy="-141.909" rx="4.00001" ry="4.00001"/>
<polygon fill="#8a7834" stroke="#8a7834" points="238.794,-110.731 240.032,-99.835 237.27,-105.969 235.746,-101.206 235.746,-101.206 235.746,-101.206 237.27,-105.969 231.46,-102.578 238.794,-110.731 238.794,-110.731"/>
</g>
<!-- Review -->
<g id="node4" class="node"><title>Review</title>
<path fill="none" stroke="black" d="M251.495,-305C251.495,-305 360.505,-305 360.505,-305 366.505,-305 372.505,-311 372.505,-317 372.505,-317 372.505,-393 372.505,-393 372.505,-399 366.505,-405 360.505,-405 360.505,-405 251.495,-405 251.495,-405 245.495,-405 239.495,-399 239.495,-393 239.495,-393 239.495,-317 239.495,-317 239.495,-311 245.495,-305 251.495,-305"/>
<text text-anchor="middle" x="306" y="-389.8" font-family="Times,serif" font-size="14.00">Review</text>
<polyline fill="none" stroke="black" points="239.495,-383 372.505,-383 "/>
<text text-anchor="start" x="247.495" y="-367.8" font-family="Times,serif" font-size="14.00">id :integer</text>
<text text-anchor="start" x="247.495" y="-353.8" font-family="Times,serif" font-size="14.00">name :string</text>
<text text-anchor="start" x="247.495" y="-339.8" font-family="Times,serif" font-size="14.00">created_at :datetime</text>
<text text-anchor="start" x="247.495" y="-325.8" font-family="Times,serif" font-size="14.00">updated_at :datetime</text>
<text text-anchor="start" x="247.495" y="-311.8" font-family="Times,serif" font-size="14.00">taxi_id :integer</text>
</g>
<!-- Review&#45;&gt;Question -->
<g id="edge4" class="edge"><title>Review&#45;&gt;Question</title>
<path fill="none" stroke="#de55bb" d="M291.577,-297.069C289.334,-288.212 287,-278.998 284.71,-269.962"/>
<ellipse fill="none" stroke="#de55bb" cx="292.575" cy="-301.007" rx="4.00001" ry="4.00001"/>
<polygon fill="#de55bb" stroke="#de55bb" points="284.706,-269.945 286.613,-259.146 283.478,-265.098 282.25,-260.251 282.25,-260.251 282.25,-260.251 283.478,-265.098 277.888,-261.356 284.706,-269.945 284.706,-269.945"/>
</g>
<!-- Taxi -->
<g id="node5" class="node"><title>Taxi</title>
<path fill="none" stroke="black" d="M435.595,-139C435.595,-139 566.405,-139 566.405,-139 572.405,-139 578.405,-145 578.405,-151 578.405,-151 578.405,-255 578.405,-255 578.405,-261 572.405,-267 566.405,-267 566.405,-267 435.595,-267 435.595,-267 429.595,-267 423.595,-261 423.595,-255 423.595,-255 423.595,-151 423.595,-151 423.595,-145 429.595,-139 435.595,-139"/>
<text text-anchor="middle" x="501" y="-251.8" font-family="Times,serif" font-size="14.00">Taxi</text>
<polyline fill="none" stroke="black" points="423.595,-245 578.405,-245 "/>
<text text-anchor="start" x="431.595" y="-229.8" font-family="Times,serif" font-size="14.00">id :integer</text>
<text text-anchor="start" x="431.595" y="-215.8" font-family="Times,serif" font-size="14.00">user_id :integer</text>
<text text-anchor="start" x="431.595" y="-201.8" font-family="Times,serif" font-size="14.00">driver_first_name :string</text>
<text text-anchor="start" x="431.595" y="-187.8" font-family="Times,serif" font-size="14.00">driver_last_name :string</text>
<text text-anchor="start" x="431.595" y="-173.8" font-family="Times,serif" font-size="14.00">driver_id :string</text>
<text text-anchor="start" x="431.595" y="-159.8" font-family="Times,serif" font-size="14.00">created_at :datetime</text>
<text text-anchor="start" x="431.595" y="-145.8" font-family="Times,serif" font-size="14.00">updated_at :datetime</text>
</g>
<!-- User -->
<g id="node6" class="node"><title>User</title>
<path fill="none" stroke="black" d="M441.043,-305C441.043,-305 560.957,-305 560.957,-305 566.957,-305 572.957,-311 572.957,-317 572.957,-317 572.957,-393 572.957,-393 572.957,-399 566.957,-405 560.957,-405 560.957,-405 441.043,-405 441.043,-405 435.043,-405 429.043,-399 429.043,-393 429.043,-393 429.043,-317 429.043,-317 429.043,-311 435.043,-305 441.043,-305"/>
<text text-anchor="middle" x="501" y="-389.8" font-family="Times,serif" font-size="14.00">User</text>
<polyline fill="none" stroke="black" points="429.043,-383 572.957,-383 "/>
<text text-anchor="start" x="437.043" y="-367.8" font-family="Times,serif" font-size="14.00">id :integer</text>
<text text-anchor="start" x="437.043" y="-353.8" font-family="Times,serif" font-size="14.00">company_name :string</text>
<text text-anchor="start" x="437.043" y="-339.8" font-family="Times,serif" font-size="14.00">taxi_count :integer</text>
<text text-anchor="start" x="437.043" y="-325.8" font-family="Times,serif" font-size="14.00">created_at :datetime</text>
<text text-anchor="start" x="437.043" y="-311.8" font-family="Times,serif" font-size="14.00">updated_at :datetime</text>
</g>
<!-- User&#45;&gt;Taxi -->
<g id="edge7" class="edge"><title>User&#45;&gt;Taxi</title>
<path fill="none" stroke="#ea3aec" d="M494.423,-296.848C494.297,-290.48 494.24,-283.929 494.251,-277.395"/>
<ellipse fill="none" stroke="#ea3aec" cx="494.522" cy="-300.886" rx="4" ry="4"/>
<polygon fill="#ea3aec" stroke="#ea3aec" points="494.253,-277.168 498.825,-267.201 494.289,-272.168 494.325,-267.169 494.325,-267.169 494.325,-267.169 494.289,-272.168 489.825,-267.136 494.253,-277.168 494.253,-277.168"/>
</g>
<!-- User&#45;&gt;Taxi -->
<g id="edge8" class="edge"><title>User&#45;&gt;Taxi</title>
<path fill="none" stroke="#6f63e3" d="M507.577,-296.848C507.703,-290.48 507.76,-283.929 507.749,-277.395"/>
<ellipse fill="none" stroke="#6f63e3" cx="507.478" cy="-300.886" rx="4" ry="4"/>
<polygon fill="#6f63e3" stroke="#6f63e3" points="507.747,-277.168 512.175,-267.136 507.711,-272.168 507.675,-267.169 507.675,-267.169 507.675,-267.169 507.711,-272.168 503.175,-267.201 507.747,-277.168 507.747,-277.168"/>
</g>
<!-- ActiveRecord::Base -->
<g id="node7" class="node"><title>ActiveRecord::Base</title>
<ellipse fill="none" stroke="black" cx="306" cy="-479" rx="80.9821" ry="18"/>
<text text-anchor="middle" x="306" y="-474.8" font-family="Times,serif" font-size="14.00">ActiveRecord::Base</text>
</g>
<!-- ActiveRecord::Base&#45;&gt;Answer -->
<g id="edge1" class="edge"><title>ActiveRecord::Base&#45;&gt;Answer</title>
<path fill="none" stroke="black" d="M276.904,-462.061C256.833,-449.502 231.285,-430.109 217,-406 156.018,-303.082 173.251,-256.15 192,-138 193.92,-125.904 197.269,-113.195 200.998,-101.37"/>
</g>
<!-- ActiveRecord::Base&#45;&gt;Question -->
<g id="edge3" class="edge"><title>ActiveRecord::Base&#45;&gt;Question</title>
<path fill="none" stroke="black" d="M279.899,-461.718C262.153,-448.993 240.126,-429.542 230,-406 209.907,-359.287 223.958,-301.99 240.366,-260.365"/>
</g>
<!-- ActiveRecord::Base&#45;&gt;Review -->
<g id="edge5" class="edge"><title>ActiveRecord::Base&#45;&gt;Review</title>
<path fill="none" stroke="black" d="M306,-460.779C306,-446.329 306,-424.951 306,-405.268"/>
</g>
<!-- ActiveRecord::Base&#45;&gt;Taxi -->
<g id="edge6" class="edge"><title>ActiveRecord::Base&#45;&gt;Taxi</title>
<path fill="none" stroke="black" d="M327.916,-461.432C344.397,-448.014 366.537,-427.813 381,-406 407.821,-365.55 395.758,-346.046 420,-304 427.198,-291.516 435.911,-278.974 444.918,-267.197"/>
</g>
<!-- ActiveRecord::Base&#45;&gt;User -->
<g id="edge9" class="edge"><title>ActiveRecord::Base&#45;&gt;User</title>
<path fill="none" stroke="black" d="M331.894,-461.799C356.552,-446.373 394.826,-422.427 428.729,-401.216"/>
</g>
</g>
</svg>
