<?xml version="1.0" encoding="UTF-8" standalone="no"?>
<!DOCTYPE svg PUBLIC "-//W3C//DTD SVG 1.1//EN"
 "http://www.w3.org/Graphics/SVG/1.1/DTD/svg11.dtd">
<!-- Generated by graphviz version 2.36.0 (20140111.2315)
 -->
<!-- Title: models_diagram Pages: 1 -->
<svg width="461pt" height="298pt"
 viewBox="0.00 0.00 461.00 298.00" xmlns="http://www.w3.org/2000/svg" xmlns:xlink="http://www.w3.org/1999/xlink">
<g id="graph0" class="graph" transform="scale(1 1) rotate(0) translate(4 294)">
<title>models_diagram</title>
<polygon fill="white" stroke="none" points="-4,4 -4,-294 457,-294 457,4 -4,4"/>
<!-- _diagram_info -->
<g id="node1" class="node"><title>_diagram_info</title>
<text text-anchor="start" x="7.31226" y="-275.1" font-family="Times,serif" font-size="13.00">Models diagram</text>
<text text-anchor="start" x="7.31226" y="-262.1" font-family="Times,serif" font-size="13.00">Date: Sep 05 2014 &#45; 21:09</text>
<text text-anchor="start" x="7.31226" y="-249.1" font-family="Times,serif" font-size="13.00">Migration version: 20140906015343</text>
<text text-anchor="start" x="7.31226" y="-236.1" font-family="Times,serif" font-size="13.00">Generated by RailRoady 1.1.2</text>
<text text-anchor="start" x="7.31226" y="-223.1" font-family="Times,serif" font-size="13.00">http://railroady.prestonlee.com</text>
</g>
<!-- Answer -->
<g id="node2" class="node"><title>Answer</title>
<ellipse fill="none" stroke="black" cx="238" cy="-18" rx="37.4191" ry="18"/>
<text text-anchor="middle" x="238" y="-13.8" font-family="Times,serif" font-size="14.00">Answer</text>
</g>
<!-- Question -->
<g id="node3" class="node"><title>Question</title>
<ellipse fill="none" stroke="black" cx="273" cy="-90" rx="42.0588" ry="18"/>
<text text-anchor="middle" x="273" y="-85.8" font-family="Times,serif" font-size="14.00">Question</text>
</g>
<!-- Question&#45;&gt;Answer -->
<g id="edge2" class="edge"><title>Question&#45;&gt;Answer</title>
<path fill="none" stroke="#e4c447" d="M260.857,-64.7144C257.651,-58.3016 254.179,-51.3577 250.932,-44.8648"/>
<ellipse fill="none" stroke="#e4c447" cx="262.739" cy="-68.4772" rx="4.00002" ry="4.00002"/>
<polygon fill="#e4c447" stroke="#e4c447" points="250.867,-44.7333 250.419,-33.7765 248.631,-40.2611 246.395,-35.789 246.395,-35.789 246.395,-35.789 248.631,-40.2611 242.37,-37.8015 250.867,-44.7333 250.867,-44.7333"/>
</g>
<!-- Review -->
<g id="node4" class="node"><title>Review</title>
<ellipse fill="none" stroke="black" cx="306" cy="-162" rx="37.1815" ry="18"/>
<text text-anchor="middle" x="306" y="-157.8" font-family="Times,serif" font-size="14.00">Review</text>
</g>
<!-- Review&#45;&gt;Question -->
<g id="edge4" class="edge"><title>Review&#45;&gt;Question</title>
<path fill="none" stroke="#26f081" d="M294.551,-136.714C291.528,-130.302 288.254,-123.358 285.193,-116.865"/>
<ellipse fill="none" stroke="#26f081" cx="296.306" cy="-140.437" rx="4.00002" ry="4.00002"/>
<polygon fill="#26f081" stroke="#26f081" points="285.179,-116.834 284.985,-105.87 283.047,-112.312 280.915,-107.789 280.915,-107.789 280.915,-107.789 283.047,-112.312 276.844,-109.708 285.179,-116.834 285.179,-116.834"/>
</g>
<!-- Taxi -->
<g id="node5" class="node"><title>Taxi</title>
<ellipse fill="none" stroke="black" cx="426" cy="-90" rx="27" ry="18"/>
<text text-anchor="middle" x="426" y="-85.8" font-family="Times,serif" font-size="14.00">Taxi</text>
</g>
<!-- User -->
<g id="node6" class="node"><title>User</title>
<ellipse fill="none" stroke="black" cx="426" cy="-162" rx="27" ry="18"/>
<text text-anchor="middle" x="426" y="-157.8" font-family="Times,serif" font-size="14.00">User</text>
</g>
<!-- User&#45;&gt;Taxi -->
<g id="edge7" class="edge"><title>User&#45;&gt;Taxi</title>
<path fill="none" stroke="#2c6e72" d="M419.512,-136.207C419.204,-130.36 419.168,-124.098 419.403,-118.153"/>
<ellipse fill="none" stroke="#2c6e72" cx="419.845" cy="-140.423" rx="4" ry="4"/>
<polygon fill="#2c6e72" stroke="#2c6e72" points="419.419,-117.932 424.609,-108.272 419.77,-112.944 420.121,-107.956 420.121,-107.956 420.121,-107.956 419.77,-112.944 415.632,-107.64 419.419,-117.932 419.419,-117.932"/>
</g>
<!-- User&#45;&gt;Taxi -->
<g id="edge8" class="edge"><title>User&#45;&gt;Taxi</title>
<path fill="none" stroke="#93fbaa" d="M432.488,-136.207C432.796,-130.36 432.832,-124.098 432.597,-118.153"/>
<ellipse fill="none" stroke="#93fbaa" cx="432.155" cy="-140.423" rx="4" ry="4"/>
<polygon fill="#93fbaa" stroke="#93fbaa" points="432.581,-117.932 436.368,-107.64 432.23,-112.944 431.879,-107.956 431.879,-107.956 431.879,-107.956 432.23,-112.944 427.391,-108.272 432.581,-117.932 432.581,-117.932"/>
</g>
<!-- ActiveRecord::Base -->
<g id="node7" class="node"><title>ActiveRecord::Base</title>
<ellipse fill="none" stroke="black" cx="306" cy="-253" rx="80.9821" ry="18"/>
<text text-anchor="middle" x="306" y="-248.8" font-family="Times,serif" font-size="14.00">ActiveRecord::Base</text>
</g>
<!-- ActiveRecord::Base&#45;&gt;Answer -->
<g id="edge1" class="edge"><title>ActiveRecord::Base&#45;&gt;Answer</title>
<path fill="none" stroke="black" d="M291.045,-234.936C269.95,-209.45 232.815,-158.962 222,-108 216.688,-82.9679 224.627,-53.7311 231.096,-35.7922"/>
</g>
<!-- ActiveRecord::Base&#45;&gt;Question -->
<g id="edge3" class="edge"><title>ActiveRecord::Base&#45;&gt;Question</title>
<path fill="none" stroke="black" d="M291.184,-235.058C280.181,-221.283 266.074,-200.788 260,-180 252.862,-155.568 260.084,-126.167 266.273,-108.03"/>
</g>
<!-- ActiveRecord::Base&#45;&gt;Review -->
<g id="edge5" class="edge"><title>ActiveRecord::Base&#45;&gt;Review</title>
<path fill="none" stroke="black" d="M306,-234.84C306,-219.08 306,-195.851 306,-180.107"/>
</g>
<!-- ActiveRecord::Base&#45;&gt;Taxi -->
<g id="edge6" class="edge"><title>ActiveRecord::Base&#45;&gt;Taxi</title>
<path fill="none" stroke="black" d="M318.615,-235.074C341.963,-203.749 391.593,-137.162 414.263,-106.747"/>
</g>
<!-- ActiveRecord::Base&#45;&gt;User -->
<g id="edge9" class="edge"><title>ActiveRecord::Base&#45;&gt;User</title>
<path fill="none" stroke="black" d="M328.29,-235.468C351.47,-218.276 387.28,-191.718 408.504,-175.976"/>
</g>
</g>
</svg>
