<?xml version="1.0" encoding="UTF-8" standalone="no"?>
<!DOCTYPE svg PUBLIC "-//W3C//DTD SVG 1.1//EN"
 "http://www.w3.org/Graphics/SVG/1.1/DTD/svg11.dtd">
<!-- Generated by graphviz version 2.36.0 (20140111.2315)
 -->
<!-- Title: models_diagram Pages: 1 -->
<svg width="450pt" height="370pt"
 viewBox="0.00 0.00 450.00 370.00" xmlns="http://www.w3.org/2000/svg" xmlns:xlink="http://www.w3.org/1999/xlink">
<g id="graph0" class="graph" transform="scale(1 1) rotate(0) translate(4 366)">
<title>models_diagram</title>
<polygon fill="white" stroke="none" points="-4,4 -4,-366 446,-366 446,4 -4,4"/>
<!-- _diagram_info -->
<g id="node1" class="node"><title>_diagram_info</title>
<text text-anchor="start" x="7.31226" y="-347.1" font-family="Times,serif" font-size="13.00">Models diagram</text>
<text text-anchor="start" x="7.31226" y="-334.1" font-family="Times,serif" font-size="13.00">Date: Sep 09 2014 &#45; 14:27</text>
<text text-anchor="start" x="7.31226" y="-321.1" font-family="Times,serif" font-size="13.00">Migration version: 20140909163228</text>
<text text-anchor="start" x="7.31226" y="-308.1" font-family="Times,serif" font-size="13.00">Generated by RailRoady 1.1.2</text>
<text text-anchor="start" x="7.31226" y="-295.1" font-family="Times,serif" font-size="13.00">http://railroady.prestonlee.com</text>
</g>
<!-- Answer -->
<g id="node2" class="node"><title>Answer</title>
<ellipse fill="none" stroke="black" cx="316" cy="-18" rx="37.4191" ry="18"/>
<text text-anchor="middle" x="316" y="-13.8" font-family="Times,serif" font-size="14.00">Answer</text>
</g>
<!-- Question -->
<g id="node3" class="node"><title>Question</title>
<ellipse fill="none" stroke="black" cx="316" cy="-90" rx="42.0588" ry="18"/>
<text text-anchor="middle" x="316" y="-85.8" font-family="Times,serif" font-size="14.00">Question</text>
</g>
<!-- Question&#45;&gt;Answer -->
<g id="edge2" class="edge"><title>Question&#45;&gt;Answer</title>
<path fill="none" stroke="#23fc27" d="M316,-63.6398C316,-58.0629 316,-52.1319 316,-46.4761"/>
<ellipse fill="none" stroke="#23fc27" cx="316" cy="-67.6966" rx="4" ry="4"/>
<polygon fill="#23fc27" stroke="#23fc27" points="316,-46.1043 320.5,-36.1043 316,-41.1043 316,-36.1043 316,-36.1043 316,-36.1043 316,-41.1043 311.5,-36.1044 316,-46.1043 316,-46.1043"/>
</g>
<!-- Review -->
<g id="node4" class="node"><title>Review</title>
<ellipse fill="none" stroke="black" cx="333" cy="-162" rx="37.1815" ry="18"/>
<text text-anchor="middle" x="333" y="-157.8" font-family="Times,serif" font-size="14.00">Review</text>
</g>
<!-- Review&#45;&gt;Question -->
<g id="edge4" class="edge"><title>Review&#45;&gt;Question</title>
<path fill="none" stroke="#0cadf9" d="M326.994,-136.267C325.589,-130.485 324.085,-124.291 322.654,-118.4"/>
<ellipse fill="none" stroke="#0cadf9" cx="327.941" cy="-140.168" rx="4.00001" ry="4.00001"/>
<polygon fill="#0cadf9" stroke="#0cadf9" points="322.555,-117.993 324.568,-107.213 321.375,-113.134 320.195,-108.275 320.195,-108.275 320.195,-108.275 321.375,-113.134 315.823,-109.337 322.555,-117.993 322.555,-117.993"/>
</g>
<!-- Taxi -->
<g id="node5" class="node"><title>Taxi</title>
<ellipse fill="none" stroke="black" cx="415" cy="-162" rx="27" ry="18"/>
<text text-anchor="middle" x="415" y="-157.8" font-family="Times,serif" font-size="14.00">Taxi</text>
</g>
<!-- Taxi&#45;&gt;Answer -->
<g id="edge6" class="edge"><title>Taxi&#45;&gt;Answer</title>
<path fill="none" stroke="#3a7500" d="M404.262,-137.006C395.457,-118.473 382.031,-92.5981 367,-72 359.12,-61.2013 349.156,-50.3714 340.131,-41.3417"/>
<ellipse fill="none" stroke="#3a7500" cx="406.051" cy="-140.838" rx="4.00002" ry="4.00002"/>
<polygon fill="#3a7500" stroke="#3a7500" points="339.992,-41.2061 335.98,-31.0004 336.414,-37.7132 332.836,-34.2204 332.836,-34.2204 332.836,-34.2204 336.414,-37.7132 329.693,-37.4404 339.992,-41.2061 339.992,-41.2061"/>
</g>
<!-- User -->
<g id="node6" class="node"><title>User</title>
<ellipse fill="none" stroke="black" cx="361" cy="-234" rx="27" ry="18"/>
<text text-anchor="middle" x="361" y="-229.8" font-family="Times,serif" font-size="14.00">User</text>
</g>
<!-- User&#45;&gt;Review -->
<g id="edge8" class="edge"><title>User&#45;&gt;Review</title>
<path fill="none" stroke="#d025cd" d="M351.311,-208.778C348.818,-202.544 346.122,-195.805 343.585,-189.463"/>
<ellipse fill="none" stroke="#d025cd" cx="352.879" cy="-212.697" rx="4.00001" ry="4.00001"/>
<polygon fill="#d025cd" stroke="#d025cd" points="343.496,-189.241 343.961,-178.285 341.639,-184.599 339.782,-179.956 339.782,-179.956 339.782,-179.956 341.639,-184.599 335.604,-181.627 343.496,-189.241 343.496,-189.241"/>
</g>
<!-- User&#45;&gt;Taxi -->
<g id="edge9" class="edge"><title>User&#45;&gt;Taxi</title>
<path fill="none" stroke="#8fbfdf" d="M372.695,-209.526C378.522,-201.33 385.628,-192.186 392.395,-184.188"/>
<ellipse fill="none" stroke="#8fbfdf" cx="370.225" cy="-213.116" rx="4.00002" ry="4.00002"/>
<polygon fill="#8fbfdf" stroke="#8fbfdf" points="392.406,-184.176 402.378,-179.613 395.699,-180.413 398.991,-176.65 398.991,-176.65 398.991,-176.65 395.699,-180.413 395.604,-173.687 392.406,-184.176 392.406,-184.176"/>
</g>
<!-- User&#45;&gt;Taxi -->
<g id="edge10" class="edge"><title>User&#45;&gt;Taxi</title>
<path fill="none" stroke="#174578" d="M382.667,-212.915C389.302,-205.142 396.338,-196.162 402.227,-187.98"/>
<ellipse fill="none" stroke="#174578" cx="379.812" cy="-216.165" rx="4.00002" ry="4.00002"/>
<polygon fill="#174578" stroke="#174578" points="402.4,-187.73 411.794,-182.073 405.248,-183.62 408.095,-179.51 408.095,-179.51 408.095,-179.51 405.248,-183.62 404.396,-176.948 402.4,-187.73 402.4,-187.73"/>
</g>
<!-- ActiveRecord::Base -->
<g id="node7" class="node"><title>ActiveRecord::Base</title>
<ellipse fill="none" stroke="black" cx="306" cy="-325" rx="80.9821" ry="18"/>
<text text-anchor="middle" x="306" y="-320.8" font-family="Times,serif" font-size="14.00">ActiveRecord::Base</text>
</g>
<!-- ActiveRecord::Base&#45;&gt;Answer -->
<g id="edge1" class="edge"><title>ActiveRecord::Base&#45;&gt;Answer</title>
<path fill="none" stroke="black" d="M297.131,-306.8C276.855,-265.014 231.367,-155.458 265,-72 271.3,-56.366 284.663,-42.7635 296.13,-33.2541"/>
</g>
<!-- ActiveRecord::Base&#45;&gt;Question -->
<g id="edge3" class="edge"><title>ActiveRecord::Base&#45;&gt;Question</title>
<path fill="none" stroke="black" d="M300.229,-306.835C290.214,-274.476 272.054,-202.453 287,-144 290.326,-130.993 297.576,-117.743 303.994,-107.745"/>
</g>
<!-- ActiveRecord::Base&#45;&gt;Review -->
<g id="edge5" class="edge"><title>ActiveRecord::Base&#45;&gt;Review</title>
<path fill="none" stroke="black" d="M308.889,-306.77C314.086,-275.782 324.95,-211.004 330.131,-180.106"/>
</g>
<!-- ActiveRecord::Base&#45;&gt;Taxi -->
<g id="edge7" class="edge"><title>ActiveRecord::Base&#45;&gt;Taxi</title>
<path fill="none" stroke="black" d="M335.597,-308.121C356.044,-295.592 382.141,-276.209 397,-252 410.607,-229.832 414.151,-199.267 414.952,-180.339"/>
</g>
<!-- ActiveRecord::Base&#45;&gt;User -->
<g id="edge11" class="edge"><title>ActiveRecord::Base&#45;&gt;User</title>
<path fill="none" stroke="black" d="M316.605,-306.84C326.594,-290.676 341.438,-266.654 351.167,-250.911"/>
</g>
</g>
</svg>
